<svg width="48" height="48" viewBox="0 0 48 48" fill="none" xmlns="http://www.w3.org/2000/svg">
<g clip-path="url(#clip0_12890_76)">
<path d="M42.4 0H5.6C4.1 0 2.7 0.6 1.6 1.6C0.6 2.7 0 4.1 0 5.6V42.4C0 43.9 0.6 45.3 1.6 46.4C2.6 47.4 4.1 48 5.6 48H42.4C43.9 48 45.3 47.4 46.4 46.4C47.4 45.4 48 43.9 48 42.4V5.6C48 4.1 47.4 2.7 46.4 1.6C45.4 0.6 43.9 0 42.4 0Z" fill="white"/>
<path d="M24 13C25.7 13 27 11.7 27 10C27 8.3 25.7 7 24 7C22.3 7 21 8.3 21 10C21 11.7 22.3 13 24 13Z" fill="#00D639"/>
<path d="M14.1 13C15.8 13 17.1 11.7 17.1 10C17.1 8.3 15.8 7 14.1 7C12.4 7 11.1 8.3 11.1 10C11.1 11.7 12.4 13 14.1 13Z" fill="#00D639"/>
<path d="M33.9 13C35.6 13 36.9 11.7 36.9 10C36.9 8.3 35.6 7 33.9 7C32.2 7 30.9 8.3 30.9 10C30.9 11.7 32.2 13 33.9 13Z" fill="#00D639"/>
<path d="M31.8 24.6C31.1 24.6 30.6 25.1 30.6 26.8C30.6 28.5 31.1 29 31.8 29C32.5 29 33 28.5 33 26.8C33 25.1 32.5 24.6 31.8 24.6Z" fill="#231F20"/>
<path d="M23.7 24.6C23 24.6 22.5 25.1 22.5 26.8C22.5 28.5 23 29 23.7 29C24.4 29 24.9 28.5 24.9 26.8C24.9 25.1 24.4 24.6 23.7 24.6Z" fill="#231F20"/>
<path d="M28.9 15.2H9.19995V39.4H38.7999V15.2H28.9ZM15.9 31C14.6 31 13.5 30.7 12.7 29.9C12.7 29.9 12.6 29.7 12.7 29.6L13.8 28.3C13.8 28.2 14 28.2 14 28.3C14.5 28.8 15.1 29.1 15.9 29.1C16.7 29.1 17.1 28.8 17.1 28.3C17.1 27.8 16.5 27.4 15.3 27.6C15.1666 27.6 15.0666 27.5333 15 27.4L14.4 26.5V26.2L16.4 24.5H13.2C13.1 24.5 13 24.5 13 24.3V22.7C13 22.7 13 22.5 13.2 22.5H18.8C19 22.5 19.1 22.6 19.1 22.8V24.3C19.1 24.3 19.1 24.5 19 24.6L17.4 26C18.9 26.3 19.6 27.1 19.6 28.2C19.6 29.8 18.1 31 16 31H15.9ZM23.7 31.1C21.7 31.1 20.1 29.9 20.1 26.8C20.1 23.7 21.7 22.5 23.7 22.5C25.7 22.5 27.3 23.7 27.4 26.8C27.4 29.8 25.8 31.1 23.7 31.1ZM31.7999 31.1C29.7999 31.1 28.2 29.9 28.2 26.8C28.2 23.7 29.7999 22.5 31.7999 22.5C33.7999 22.5 35.4 23.7 35.5 26.8C35.5 29.8 33.9 31.1 31.7999 31.1Z" fill="#231F20"/>
</g>
<defs>
<clipPath id="clip0_12890_76">
<rect width="48" height="48" fill="white"/>
</clipPath>
</defs>
</svg>
